<?xml version="1.0" encoding="UTF-8" standalone="no"?>
<!-- Created with Inkscape (http://www.inkscape.org/) -->

<svg
   xmlns:dc="http://purl.org/dc/elements/1.1/"
   xmlns:cc="http://creativecommons.org/ns#"
   xmlns:rdf="http://www.w3.org/1999/02/22-rdf-syntax-ns#"
   xmlns:svg="http://www.w3.org/2000/svg"
   xmlns="http://www.w3.org/2000/svg"
   xmlns:sodipodi="http://sodipodi.sourceforge.net/DTD/sodipodi-0.dtd"
   xmlns:inkscape="http://www.inkscape.org/namespaces/inkscape"
   width="21.666666mm"
   height="21.666666mm"
   viewBox="0 0 21.666666 21.666666"
   version="1.1"
   id="svg8"
   inkscape:version="0.92.4 (5da689c313, 2019-01-14)"
   sodipodi:docname="account-circle-svgrepo-com.svg">
  <defs
     id="defs2" />
  <sodipodi:namedview
     id="base"
     pagecolor="#ffffff"
     bordercolor="#666666"
     borderopacity="1.0"
     inkscape:pageopacity="0.0"
     inkscape:pageshadow="2"
     inkscape:zoom="0.98994949"
     inkscape:cx="-44.362422"
     inkscape:cy="50.96366"
     inkscape:document-units="mm"
     inkscape:current-layer="g930"
     showgrid="false"
     fit-margin-top="0"
     fit-margin-left="0"
     fit-margin-right="0"
     fit-margin-bottom="0"
     inkscape:window-width="1366"
     inkscape:window-height="721"
     inkscape:window-x="-4"
     inkscape:window-y="-4"
     inkscape:window-maximized="1" />
  <metadata
     id="metadata5">
    <rdf:RDF>
      <cc:Work
         rdf:about="">
        <dc:format>image/svg+xml</dc:format>
        <dc:type
           rdf:resource="http://purl.org/dc/dcmitype/StillImage" />
        <dc:title></dc:title>
      </cc:Work>
    </rdf:RDF>
  </metadata>
  <g
     inkscape:label="Layer 1"
     inkscape:groupmode="layer"
     id="layer1"
     transform="translate(20.176608,-94.814363)">
    <g
       transform="matrix(1.0833333,0,0,1.0833333,14.211905,88.96667)"
       id="g853">
      <path
         style="fill:none"
         inkscape:connector-curvature="0"
         d="M 0,0 H 24 V 24 H 0 Z"
         id="path849" />
      <g
         id="g930"
         transform="translate(-33.743244,3.3978708)">
        <path
           id="path926"
           d="M 0,0 H 24 V 24 H 0 Z"
           inkscape:connector-curvature="0"
           style="fill:none" />
        <path
           id="path928"
           d="M 12,2 C 17.52,2 22,6.48 22,12 22,17.52 17.52,22 12,22 6.48,22 2,17.52 2,12 2,6.48 6.48,2 12,2 Z M 6.023,15.416 C 7.491,17.606 9.695,19 12.16,19 c 2.464,0 4.669,-1.393 6.136,-3.584 A 8.968,8.968 0 0 0 12.16,13 8.968,8.968 0 0 0 6.023,15.416 Z M 12,11 a 3,3 0 1 0 0,-6 3,3 0 0 0 0,6 z"
           inkscape:connector-curvature="0"
           style="fill:#787878;fill-opacity:1" />
      </g>
    </g>
  </g>
</svg>
