<?xml version="1.0" encoding="UTF-8" standalone="no"?>
<!-- Created with Inkscape (http://www.inkscape.org/) -->

<svg
   xmlns:dc="http://purl.org/dc/elements/1.1/"
   xmlns:cc="http://creativecommons.org/ns#"
   xmlns:rdf="http://www.w3.org/1999/02/22-rdf-syntax-ns#"
   xmlns:svg="http://www.w3.org/2000/svg"
   xmlns="http://www.w3.org/2000/svg"
   xmlns:sodipodi="http://sodipodi.sourceforge.net/DTD/sodipodi-0.dtd"
   xmlns:inkscape="http://www.inkscape.org/namespaces/inkscape"
   width="21.666666mm"
   height="21.666666mm"
   viewBox="0 0 21.666666 21.666666"
   version="1.1"
   id="svg8"
   inkscape:version="0.92.4 (5da689c313, 2019-01-14)"
   sodipodi:docname="history.svg">
  <defs
     id="defs2" />
  <sodipodi:namedview
     id="base"
     pagecolor="#ffffff"
     bordercolor="#666666"
     borderopacity="1.0"
     inkscape:pageopacity="0.0"
     inkscape:pageshadow="2"
     inkscape:zoom="0.98994949"
     inkscape:cx="-182.52373"
     inkscape:cy="37.05112"
     inkscape:document-units="mm"
     inkscape:current-layer="g853"
     showgrid="false"
     fit-margin-top="0"
     fit-margin-left="0"
     fit-margin-right="0"
     fit-margin-bottom="0"
     inkscape:window-width="1366"
     inkscape:window-height="721"
     inkscape:window-x="-4"
     inkscape:window-y="-4"
     inkscape:window-maximized="1" />
  <metadata
     id="metadata5">
    <rdf:RDF>
      <cc:Work
         rdf:about="">
        <dc:format>image/svg+xml</dc:format>
        <dc:type
           rdf:resource="http://purl.org/dc/dcmitype/StillImage" />
        <dc:title></dc:title>
      </cc:Work>
    </rdf:RDF>
  </metadata>
  <g
     inkscape:label="Layer 1"
     inkscape:groupmode="layer"
     id="layer1"
     transform="translate(-16.378572,-91.133337)">
    <g
       id="g819"
       transform="matrix(1.0833333,0,0,1.0833333,14.211905,88.96667)">
      <path
         id="path815"
         d="M 0,0 H 24 V 24 H 0 Z"
         inkscape:connector-curvature="0"
         style="fill:none" />
      <path
         id="path817"
         d="M 12,2 C 17.523,2 22,6.477 22,12 22,17.523 17.523,22 12,22 6.477,22 2,17.523 2,12 h 2 c 0,4.418 3.582,8 8,8 4.418,0 8,-3.582 8,-8 C 20,7.582 16.418,4 12,4 9.25,4 6.824,5.387 5.385,7.5 H 8 v 2 H 2 v -6 H 4 V 6 C 5.824,3.57 8.729,2 12,2 Z m 1,5 v 4.585 l 3.243,3.243 -1.415,1.415 L 11,12.413 V 7 Z"
         inkscape:connector-curvature="0"
         style="fill:#787878;fill-opacity:1" />
    </g>
    <g
       transform="matrix(1.0833333,0,0,1.0833333,14.211905,88.96667)"
       id="g853">
      <path
         style="fill:none"
         inkscape:connector-curvature="0"
         d="M 0,0 H 24 V 24 H 0 Z"
         id="path849" />
      <path
         style="fill:#787878;fill-opacity:1"
         inkscape:connector-curvature="0"
         d="M 12,2 C 17.523,2 22,6.477 22,12 22,17.523 17.523,22 12,22 6.477,22 2,17.523 2,12 h 2 c 0,4.418 3.582,8 8,8 4.418,0 8,-3.582 8,-8 C 20,7.582 16.418,4 12,4 9.25,4 6.824,5.387 5.385,7.5 H 8 v 2 H 2 v -6 H 4 V 6 C 5.824,3.57 8.729,2 12,2 Z m 1,5 v 4.585 l 3.243,3.243 -1.415,1.415 L 11,12.413 V 7 Z"
         id="path851" />
    </g>
  </g>
</svg>
