<?xml version="1.0" encoding="UTF-8" standalone="no"?>
<!-- Created with Inkscape (http://www.inkscape.org/) -->

<svg
   xmlns:dc="http://purl.org/dc/elements/1.1/"
   xmlns:cc="http://creativecommons.org/ns#"
   xmlns:rdf="http://www.w3.org/1999/02/22-rdf-syntax-ns#"
   xmlns:svg="http://www.w3.org/2000/svg"
   xmlns="http://www.w3.org/2000/svg"
   xmlns:sodipodi="http://sodipodi.sourceforge.net/DTD/sodipodi-0.dtd"
   xmlns:inkscape="http://www.inkscape.org/namespaces/inkscape"
   width="120.34762mm"
   height="120.34762mm"
   viewBox="0 0 120.34762 120.34762"
   version="1.1"
   id="svg8"
   inkscape:version="0.92.4 (5da689c313, 2019-01-14)"
   sodipodi:docname="log_out.svg">
  <defs
     id="defs2" />
  <sodipodi:namedview
     id="base"
     pagecolor="#ffffff"
     bordercolor="#666666"
     borderopacity="1.0"
     inkscape:pageopacity="0.0"
     inkscape:pageshadow="2"
     inkscape:zoom="0.35"
     inkscape:cx="15.127495"
     inkscape:cy="-1.9192407"
     inkscape:document-units="mm"
     inkscape:current-layer="layer1"
     showgrid="false"
     fit-margin-top="0"
     fit-margin-left="0"
     fit-margin-right="0"
     fit-margin-bottom="0"
     inkscape:window-width="1366"
     inkscape:window-height="721"
     inkscape:window-x="-4"
     inkscape:window-y="-4"
     inkscape:window-maximized="1" />
  <metadata
     id="metadata5">
    <rdf:RDF>
      <cc:Work
         rdf:about="">
        <dc:format>image/svg+xml</dc:format>
        <dc:type
           rdf:resource="http://purl.org/dc/dcmitype/StillImage" />
        <dc:title></dc:title>
      </cc:Work>
    </rdf:RDF>
  </metadata>
  <g
     inkscape:label="Layer 1"
     inkscape:groupmode="layer"
     id="layer1"
     transform="translate(158.21677,-27.977916)">
    <g
       id="XMLID_1_"
       transform="matrix(0.23505394,0,0,0.23505394,-158.21677,27.977916)"
       style="fill:#787878;fill-opacity:1">
	<polygon
   points="355.6,175 410.5,229.9 176.9,229.9 176.9,282.1 410.5,282.1 357.5,337 393.8,374.2 512,256 393.8,137.8 "
   id="XMLID_3_"
   style="fill:#787878;fill-opacity:1" />

	<path
   d="M 256,459.9 C 202,459.9 150.8,438.5 112.6,400.3 74.4,362.1 53.1,310.9 53.1,256 53.1,202 74.5,150.8 112.7,111.7 150.8,73.5 202,52.1 256,52.1 c 54,0 105.2,21.4 143.4,59.6 L 436.6,74.5 C 426.4,64.3 414.3,55 402.2,45.6 359.3,15.8 308.1,0 256,0 115.4,0 0,114.5 0,256 c 0,141.5 114.5,256 256,256 53.1,0 103.3,-15.8 146.2,-46.5 12.1,-8.4 23.3,-17.7 34.4,-28.9 L 399.4,399.4 C 361.2,438.5 310,459.9 256,459.9 Z m 236.5,-203 -0.9,-0.9 0.9,-0.9 0.9,0.9 z"
   id="XMLID_6_"
   inkscape:connector-curvature="0"
   style="fill:#787878;fill-opacity:1" />

</g>
  </g>
</svg>
