<?xml version="1.0" encoding="UTF-8" standalone="no"?>
<!-- Created with Inkscape (http://www.inkscape.org/) -->

<svg
   xmlns:dc="http://purl.org/dc/elements/1.1/"
   xmlns:cc="http://creativecommons.org/ns#"
   xmlns:rdf="http://www.w3.org/1999/02/22-rdf-syntax-ns#"
   xmlns:svg="http://www.w3.org/2000/svg"
   xmlns="http://www.w3.org/2000/svg"
   xmlns:sodipodi="http://sodipodi.sourceforge.net/DTD/sodipodi-0.dtd"
   xmlns:inkscape="http://www.inkscape.org/namespaces/inkscape"
   width="29.985504mm"
   height="29.979179mm"
   viewBox="0 0 29.985504 29.979179"
   version="1.1"
   id="svg8"
   inkscape:version="0.92.4 (5da689c313, 2019-01-14)"
   sodipodi:docname="logo3.svg">
  <defs
     id="defs2" />
  <sodipodi:namedview
     id="base"
     pagecolor="#ffffff"
     bordercolor="#666666"
     borderopacity="1.0"
     inkscape:pageopacity="0.0"
     inkscape:pageshadow="2"
     inkscape:zoom="1.4"
     inkscape:cx="-0.21243459"
     inkscape:cy="-14.228272"
     inkscape:document-units="mm"
     inkscape:current-layer="layer2"
     showgrid="false"
     showguides="true"
     inkscape:guide-bbox="true"
     fit-margin-top="0"
     fit-margin-left="0"
     fit-margin-right="0"
     fit-margin-bottom="0"
     inkscape:window-width="1366"
     inkscape:window-height="721"
     inkscape:window-x="-4"
     inkscape:window-y="-4"
     inkscape:window-maximized="1">
    <sodipodi:guide
       position="29.957936,5.8380797"
       orientation="1,0"
       id="guide831"
       inkscape:locked="false" />
    <sodipodi:guide
       position="8.2243066,34.375279"
       orientation="0,1"
       id="guide833"
       inkscape:locked="false" />
    <sodipodi:guide
       position="-6.8947396,7.7279597"
       orientation="1,0"
       id="guide835"
       inkscape:locked="false" />
    <sodipodi:guide
       position="12.571033,-7.9580497"
       orientation="0,1"
       id="guide837"
       inkscape:locked="false" />
  </sodipodi:namedview>
  <metadata
     id="metadata5">
    <rdf:RDF>
      <cc:Work
         rdf:about="">
        <dc:format>image/svg+xml</dc:format>
        <dc:type
           rdf:resource="http://purl.org/dc/dcmitype/StillImage" />
        <dc:title></dc:title>
      </cc:Work>
    </rdf:RDF>
  </metadata>
  <g
     inkscape:label="Layer 1"
     inkscape:groupmode="layer"
     id="layer1"
     transform="translate(-41.290572,-152.47348)">
    <rect
       style="opacity:1;fill:#787878;fill-opacity:1;stroke:none;stroke-width:16.39655304;stroke-miterlimit:4;stroke-dasharray:none;stroke-opacity:1"
       id="rect826"
       width="40"
       height="40"
       x="14.363094"
       y="50.625"
       ry="1.2327018" />
  </g>
  <g
     inkscape:groupmode="layer"
     id="layer2"
     inkscape:label="Layer 2"
     transform="translate(-41.290572,-152.47348)">
    <g
       id="g852"
       transform="translate(8.1483696,-1.8898809)"
       style="fill:#c1272d;fill-opacity:1">
      <path
         transform="matrix(0.26458333,0,0,0.26458333,34.263541,147.94509)"
         inkscape:connector-curvature="0"
         id="path843"
         d="M 54.545364,24.445229 C 41.482704,24.987377 26.982566,22.679522 15.510765,30.498522 4.8693731,38.042498 -4.0116162,49.779583 -3.8447034,63.352874 c -0.2529448,13.575335 -0.8911288,27.25432 0.3306362,40.782646 1.378979,7.19269 9.9836085,7.10378 15.7336022,7.13807 5.365951,-0.28319 10.65984,1.10043 15.78177,-0.19636 5.482405,-2.80458 2.959019,-10.01787 3.737183,-14.944896 0.225149,-11.816286 -0.03954,-23.637914 0.276184,-35.45245 24.041283,-0.532221 48.165866,0.0814 72.158608,-0.449938 6.85772,-1.284455 4.38837,-9.606102 4.81544,-14.57936 -0.42772,-6.232343 0.97498,-12.734084 -0.91378,-18.751395 -4.5268,-4.592287 -11.702345,-1.613262 -17.442802,-2.462332 -12.028928,3.36e-4 -24.057852,-0.0031 -36.086774,0.0084 z"
         style="opacity:1;fill:#c1272d;fill-opacity:1;stroke:none;stroke-width:70.19122314;stroke-miterlimit:4;stroke-dasharray:none;stroke-opacity:1" />
      <path
         transform="matrix(0.26458333,0,0,0.26458333,34.263541,147.94509)"
         inkscape:connector-curvature="0"
         id="path845"
         d="m 37.952172,63.564928 c -4.474861,4.388585 -1.794873,11.381559 -2.668664,16.983752 0.476091,5.233126 -1.390132,11.284013 1.704657,15.891527 5.069439,4.034923 12.26817,1.818822 18.243557,2.436693 8.069935,-0.443886 16.383099,0.622287 24.290072,-0.865925 5.659374,-2.832429 2.627207,-10.4761 3.395501,-15.574674 C 82.2724,76.594878 84.405131,69.861411 81.454087,64.657037 77.125072,60.775883 70.575512,63.435476 65.274995,62.651144 56.522225,63.036757 47.538971,61.856346 38.93729,63.268533 l -0.683997,0.205796 z"
         style="opacity:1;fill:#c1272d;fill-opacity:1;stroke:none;stroke-width:70.19122314;stroke-miterlimit:4;stroke-dasharray:none;stroke-opacity:1" />
      <path
         transform="matrix(0.26458333,0,0,0.26458333,34.263541,147.94509)"
         inkscape:connector-curvature="0"
         id="path847"
         d="m 80.404739,89.636357 c -3.476605,3.061287 -7.54134,6.720301 -7.406529,11.789903 -14.112922,0.60006 -28.38649,-0.47254 -42.401756,0.56505 -3.999382,1.55547 -6.981518,5.62837 -8.955666,9.34845 0.400473,7.3021 -1.311887,15.11639 1.297433,22.1024 3.600241,5.58523 11.321719,3.22354 16.86236,4.00511 12.756631,-0.16149 25.699534,0.84225 38.334347,-1.10332 18.077771,-5.14644 33.098432,-23.51217 30.647992,-42.805932 -1.28445,-6.857721 -9.606096,-4.388372 -14.579353,-4.815445 -4.58421,0.325548 -9.433987,-0.821308 -13.798828,0.913784 z"
         style="opacity:1;fill:#c1272d;fill-opacity:1;stroke:none;stroke-width:70.19122314;stroke-miterlimit:4;stroke-dasharray:none;stroke-opacity:1" />
    </g>
    <g
       style="fill:#c1272d;fill-opacity:1"
       transform="translate(8.1483696,-1.8898809)"
       id="g860">
      <path
         style="opacity:1;fill:#c1272d;fill-opacity:1;stroke:none;stroke-width:70.19122314;stroke-miterlimit:4;stroke-dasharray:none;stroke-opacity:1"
         d="M 54.545364,24.445229 C 41.482704,24.987377 26.982566,22.679522 15.510765,30.498522 4.8693731,38.042498 -4.0116162,49.779583 -3.8447034,63.352874 c -0.2529448,13.575335 -0.8911288,27.25432 0.3306362,40.782646 1.378979,7.19269 9.9836085,7.10378 15.7336022,7.13807 5.365951,-0.28319 10.65984,1.10043 15.78177,-0.19636 5.482405,-2.80458 2.959019,-10.01787 3.737183,-14.944896 0.225149,-11.816286 -0.03954,-23.637914 0.276184,-35.45245 24.041283,-0.532221 48.165866,0.0814 72.158608,-0.449938 6.85772,-1.284455 4.38837,-9.606102 4.81544,-14.57936 -0.42772,-6.232343 0.97498,-12.734084 -0.91378,-18.751395 -4.5268,-4.592287 -11.702345,-1.613262 -17.442802,-2.462332 -12.028928,3.36e-4 -24.057852,-0.0031 -36.086774,0.0084 z"
         id="path854"
         inkscape:connector-curvature="0"
         transform="matrix(0.26458333,0,0,0.26458333,34.263541,147.94509)" />
      <path
         style="opacity:1;fill:#c1272d;fill-opacity:1;stroke:none;stroke-width:70.19122314;stroke-miterlimit:4;stroke-dasharray:none;stroke-opacity:1"
         d="m 37.952172,63.564928 c -4.474861,4.388585 -1.794873,11.381559 -2.668664,16.983752 0.476091,5.233126 -1.390132,11.284013 1.704657,15.891527 5.069439,4.034923 12.26817,1.818822 18.243557,2.436693 8.069935,-0.443886 16.383099,0.622287 24.290072,-0.865925 5.659374,-2.832429 2.627207,-10.4761 3.395501,-15.574674 C 82.2724,76.594878 84.405131,69.861411 81.454087,64.657037 77.125072,60.775883 70.575512,63.435476 65.274995,62.651144 56.522225,63.036757 47.538971,61.856346 38.93729,63.268533 l -0.683997,0.205796 z"
         id="path856"
         inkscape:connector-curvature="0"
         transform="matrix(0.26458333,0,0,0.26458333,34.263541,147.94509)" />
      <path
         style="opacity:1;fill:#c1272d;fill-opacity:1;stroke:none;stroke-width:70.19122314;stroke-miterlimit:4;stroke-dasharray:none;stroke-opacity:1"
         d="m 80.404739,89.636357 c -3.476605,3.061287 -7.54134,6.720301 -7.406529,11.789903 -14.112922,0.60006 -28.38649,-0.47254 -42.401756,0.56505 -3.999382,1.55547 -6.981518,5.62837 -8.955666,9.34845 0.400473,7.3021 -1.311887,15.11639 1.297433,22.1024 3.600241,5.58523 11.321719,3.22354 16.86236,4.00511 12.756631,-0.16149 25.699534,0.84225 38.334347,-1.10332 18.077771,-5.14644 33.098432,-23.51217 30.647992,-42.805932 -1.28445,-6.857721 -9.606096,-4.388372 -14.579353,-4.815445 -4.58421,0.325548 -9.433987,-0.821308 -13.798828,0.913784 z"
         id="path858"
         inkscape:connector-curvature="0"
         transform="matrix(0.26458333,0,0,0.26458333,34.263541,147.94509)" />
    </g>
  </g>
</svg>
