<?xml version="1.0" encoding="UTF-8" standalone="no"?>
<!-- Created with Inkscape (http://www.inkscape.org/) -->

<svg
   xmlns:dc="http://purl.org/dc/elements/1.1/"
   xmlns:cc="http://creativecommons.org/ns#"
   xmlns:rdf="http://www.w3.org/1999/02/22-rdf-syntax-ns#"
   xmlns:svg="http://www.w3.org/2000/svg"
   xmlns="http://www.w3.org/2000/svg"
   xmlns:sodipodi="http://sodipodi.sourceforge.net/DTD/sodipodi-0.dtd"
   xmlns:inkscape="http://www.inkscape.org/namespaces/inkscape"
   width="5.2816486mm"
   height="5.2816486mm"
   viewBox="0 0 5.2816487 5.2816486"
   version="1.1"
   id="svg1162"
   inkscape:version="0.92.4 (5da689c313, 2019-01-14)"
   sodipodi:docname="search.svg">
  <defs
     id="defs1156" />
  <sodipodi:namedview
     id="base"
     pagecolor="#ffffff"
     bordercolor="#666666"
     borderopacity="1.0"
     inkscape:pageopacity="0.0"
     inkscape:pageshadow="2"
     inkscape:zoom="5.6"
     inkscape:cx="6.413505"
     inkscape:cy="51.931401"
     inkscape:document-units="mm"
     inkscape:current-layer="layer1"
     showgrid="false"
     fit-margin-top="0"
     fit-margin-left="0"
     fit-margin-right="0"
     fit-margin-bottom="0"
     inkscape:window-width="1366"
     inkscape:window-height="721"
     inkscape:window-x="-4"
     inkscape:window-y="-4"
     inkscape:window-maximized="1" />
  <metadata
     id="metadata1159">
    <rdf:RDF>
      <cc:Work
         rdf:about="">
        <dc:format>image/svg+xml</dc:format>
        <dc:type
           rdf:resource="http://purl.org/dc/dcmitype/StillImage" />
        <dc:title></dc:title>
      </cc:Work>
    </rdf:RDF>
  </metadata>
  <g
     inkscape:label="Layer 1"
     inkscape:groupmode="layer"
     id="layer1"
     transform="translate(2.9217309,-234.07638)">
    <g
       transform="matrix(0.19882748,0,0,0.19882748,4.5288246,207.12505)"
       id="layer1-19"
       inkscape:label="Layer 1">
      <g
         style="fill:#787878;fill-opacity:1"
         inkscape:label="Layer 1"
         id="layer1-1"
         transform="translate(-37.471043,-134.99862)">
        <g
           style="fill:#787878;fill-opacity:1"
           id="g1128"
           transform="matrix(2.9609897,0,0,2.9609897,-21.219873,246.86205)">
          <g
             style="opacity:1;fill:#787878;fill-opacity:1"
             id="Icons">
            <path
               d="m 16.021,15.96 -2.374,-2.375 c -0.048,-0.047 -0.105,-0.079 -0.169,-0.099 0.403,-0.566 0.643,-1.26 0.643,-2.009 C 14.12,9.557 12.563,8 10.644,8 8.723,8 7.166,9.557 7.166,11.478 c 0,1.92 1.557,3.477 3.478,3.477 0.749,0 1.442,-0.239 2.01,-0.643 0.019,0.063 0.051,0.121 0.098,0.169 l 2.375,2.374 c 0.19,0.189 0.543,0.143 0.79,-0.104 0.247,-0.247 0.293,-0.601 0.104,-0.791 z m -5.377,-2.27 c -1.221,0 -2.213,-0.991 -2.213,-2.213 0,-1.221 0.992,-2.213 2.213,-2.213 1.222,0 2.213,0.992 2.213,2.213 -10e-4,1.222 -0.992,2.213 -2.213,2.213 z"
               id="search"
               inkscape:connector-curvature="0"
               style="fill:#787878;fill-opacity:1" />
          </g>
          <g
             style="fill:#787878;fill-opacity:1"
             id="Guides" />
        </g>
      </g>
    </g>
  </g>
</svg>
