<?xml version="1.0" encoding="UTF-8" standalone="no"?>
<!-- Created with Inkscape (http://www.inkscape.org/) -->

<svg
   xmlns:dc="http://purl.org/dc/elements/1.1/"
   xmlns:cc="http://creativecommons.org/ns#"
   xmlns:rdf="http://www.w3.org/1999/02/22-rdf-syntax-ns#"
   xmlns:svg="http://www.w3.org/2000/svg"
   xmlns="http://www.w3.org/2000/svg"
   xmlns:sodipodi="http://sodipodi.sourceforge.net/DTD/sodipodi-0.dtd"
   xmlns:inkscape="http://www.inkscape.org/namespaces/inkscape"
   width="259.28775mm"
   height="224.53732mm"
   viewBox="0 0 259.28776 224.53732"
   version="1.1"
   id="svg8"
   inkscape:version="0.92.4 (5da689c313, 2019-01-14)"
   sodipodi:docname="video.svg">
  <defs
     id="defs2" />
  <sodipodi:namedview
     id="base"
     pagecolor="#ffffff"
     bordercolor="#666666"
     borderopacity="1.0"
     inkscape:pageopacity="0.0"
     inkscape:pageshadow="2"
     inkscape:zoom="0.24748737"
     inkscape:cx="-278.94804"
     inkscape:cy="319.73434"
     inkscape:document-units="mm"
     inkscape:current-layer="layer1"
     showgrid="false"
     fit-margin-top="0"
     fit-margin-left="0"
     fit-margin-right="0"
     fit-margin-bottom="0"
     inkscape:window-width="1366"
     inkscape:window-height="721"
     inkscape:window-x="-4"
     inkscape:window-y="-4"
     inkscape:window-maximized="1" />
  <metadata
     id="metadata5">
    <rdf:RDF>
      <cc:Work
         rdf:about="">
        <dc:format>image/svg+xml</dc:format>
        <dc:type
           rdf:resource="http://purl.org/dc/dcmitype/StillImage" />
        <dc:title></dc:title>
      </cc:Work>
    </rdf:RDF>
  </metadata>
  <g
     inkscape:label="Layer 1"
     inkscape:groupmode="layer"
     id="layer1"
     transform="translate(39.247607,-27.209501)">
    <g
       id="g903"
       transform="matrix(0.26458333,0,0,0.26458333,151.60953,-4.574024)"
       style="fill:#ffffff;fill-opacity:1">
      <g
         id="g901"
         transform="matrix(0.1,0,0,-0.1,0,443)"
         style="fill:#ffffff;fill-opacity:1">
        <path
           id="path899"
           d="m -6980.6045,3171.3329 c -118.7,-68.9 -187.7,-162.8 -216.4,-296.9 -13.4,-65.1 -19.2,-1287 -15.3,-3935.8 l 5.7,-3842 49.8,-93.9 c 61.3,-118.7 178.1,-210.7 304.5,-237.5 137.9,-30.6 8940.3,-30.6 9078.2,0 126.4,26.8 243.2,118.8 304.5,237.5 l 49.8,93.9 5.7,3830.5 c 1.9,2531.9 -1.9,3866.9 -15.3,3935.8 -24.9,136 -99.6,241.3 -220.3,310.3 l -95.8,55.5 h -4567.6 -4567.9 z m 1564.8,-1254.5 v -526.7 h -545.8 -545.9 v 526.7 526.7 h 545.8 545.8 v -526.7 z m 7392.8,0 v -526.7 h -536.3 -536.30001 v 526.7 526.7 h 536.30001 536.3 z m -5171.2,-760.4 c 141.7,-80.4 2579.79999,-1844.40003 2654.49999,-1919.10003 132.2,-134.1 151.3,-315.99997 49.8,-480.69997 -23,-36.4 -524.79999,-409.9 -1354.09999,-1003.6 -724,-520.9 -1342.6,-959.5 -1377,-976.8 -34.5,-17.2 -103.4,-30.6 -164.7,-28.7 -191.5,1.9 -337.1,114.9 -383,295 -15.3,61.3 -19.2,637.8 -15.3,1982.29997 l 5.7,1896.1 46,80.40003 c 109.1,189.6 352.4,260.5 538.1,155.1 z m -2221.6,-1183.600025 V -563.46713 h -545.8 -545.9 V -27.167125 509.13287 h 545.8 545.8 V -27.167125 Z m 7392.8,0 V -563.46713 h -536.3 -536.30001 V -27.167125 509.13287 h 536.30001 536.3 z m -7392.8,-1953.499975 v -517.1 h -545.8 -545.9 v 517.1 517.1 h 545.8 545.8 v -517.1 z m 7392.8,0 v -517.1 h -536.3 -536.30001 v 517.1 517.1 h 536.30001 536.3 z m -7392.8,-1963.2 v -545.8 h -545.8 -545.9 v 545.8 545.8 h 545.8 545.8 v -545.8 z m 7392.8,0 v -545.8 h -536.3 -536.30001 v 545.8 545.8 h 536.30001 536.3 z"
           inkscape:connector-curvature="0"
           style="fill:#ffffff;fill-opacity:1" />
      </g>
    </g>
  </g>
</svg>
