<?xml version="1.0" encoding="UTF-8" standalone="no"?>
<!-- Created with Inkscape (http://www.inkscape.org/) -->

<svg
   xmlns:dc="http://purl.org/dc/elements/1.1/"
   xmlns:cc="http://creativecommons.org/ns#"
   xmlns:rdf="http://www.w3.org/1999/02/22-rdf-syntax-ns#"
   xmlns:svg="http://www.w3.org/2000/svg"
   xmlns="http://www.w3.org/2000/svg"
   xmlns:sodipodi="http://sodipodi.sourceforge.net/DTD/sodipodi-0.dtd"
   xmlns:inkscape="http://www.inkscape.org/namespaces/inkscape"
   width="39.217033mm"
   height="39.404602mm"
   viewBox="0 0 39.217033 39.404602"
   version="1.1"
   id="svg8"
   inkscape:version="0.92.4 (5da689c313, 2019-01-14)"
   sodipodi:docname="whats.svg">
  <defs
     id="defs2" />
  <sodipodi:namedview
     id="base"
     pagecolor="#515151"
     bordercolor="#666666"
     borderopacity="1.0"
     inkscape:pageopacity="0"
     inkscape:pageshadow="2"
     inkscape:zoom="1.979899"
     inkscape:cx="36.686191"
     inkscape:cy="108.16597"
     inkscape:document-units="mm"
     inkscape:current-layer="g873"
     showgrid="false"
     fit-margin-top="0"
     fit-margin-left="0"
     fit-margin-right="0"
     fit-margin-bottom="0"
     inkscape:window-width="1366"
     inkscape:window-height="721"
     inkscape:window-x="-4"
     inkscape:window-y="-4"
     inkscape:window-maximized="1" />
  <metadata
     id="metadata5">
    <rdf:RDF>
      <cc:Work
         rdf:about="">
        <dc:format>image/svg+xml</dc:format>
        <dc:type
           rdf:resource="http://purl.org/dc/dcmitype/StillImage" />
        <dc:title></dc:title>
      </cc:Work>
    </rdf:RDF>
  </metadata>
  <g
     inkscape:label="Layer 1"
     inkscape:groupmode="layer"
     id="layer1"
     transform="translate(-35.531735,-174.80326)">
    <g
       id="g936"
       transform="matrix(0.12403755,0,0,0.12340233,35.098331,174.39331)"
       style="fill:#d9d9d9;fill-opacity:1">
      <g
         id="g877"
         style="fill:#d9d9d9;fill-opacity:1">
	<g
   id="g875"
   style="fill:#d9d9d9;fill-opacity:1">
		<g
   id="g873"
   style="fill:#d9d9d9;fill-opacity:1">
			
			
		<path
   id="path1093"
   d="M 273.60137,49.732575 A 156.40369,157.20879 0 0 0 162.24765,3.3225645 c -86.768166,0 -157.4032281,70.9810075 -157.4383316,158.2310855 0,27.88478 7.2424026,55.09979 21.0082036,79.10675 L 3.4941323,322.6402 86.948026,300.62501 a 157.49093,158.30162 0 0 0 75.229504,19.26553 h 0.0658 c 86.75065,0 157.3857,-70.981 157.42081,-158.23117 A 156.52645,157.33217 0 0 0 273.59726,49.732575 M 162.24354,293.1867 h -0.0493 A 130.57315,131.24528 0 0 1 95.59251,274.83773 l -4.769872,-2.85547 -49.521713,13.06111 13.204639,-48.52518 -3.103898,-4.97054 a 130.60822,131.28053 0 0 1 -20.008537,-69.994 C 31.426012,89.039116 90.121227,30.043993 162.29944,30.043993 a 129.99446,130.66361 0 0 1 92.50244,38.566249 130.11721,130.78699 0 0 1 38.28113,93.049128 c -0.0329,72.51454 -58.72809,131.52733 -130.83618,131.52733 m 71.7749,-98.51326 c -3.94556,-1.99177 -23.27028,-11.54524 -26.88272,-12.86717 -3.59486,-1.32201 -6.20772,-1.97418 -8.83809,1.97409 -2.63046,3.94836 -10.17095,12.84958 -12.46813,15.49352 -2.29726,2.64393 -4.59443,2.96126 -8.52248,0.98709 -3.92805,-1.97418 -16.60663,-6.15157 -31.63501,-19.61805 -11.6965,-10.48761 -19.5877,-23.42532 -21.88496,-27.39127 -2.29718,-3.96586 -0.24581,-6.0987 1.7361,-8.0728 1.77112,-1.76265 3.92804,-4.61811 5.89211,-6.92713 1.96406,-2.30901 2.61286,-3.94827 3.92805,-6.5922 1.31518,-2.64394 0.66671,-4.95304 -0.33295,-6.92713 -0.98199,-1.99177 -8.85568,-21.45123 -12.13493,-29.365451 -3.17403,-7.667425 -6.41817,-6.645069 -8.83809,-6.750791 a 169.22251,170.0936 0 0 0 -7.52298,-0.1414 14.484746,14.559307 0 0 0 -10.504064,4.93536 c -3.612446,3.965864 -13.765801,13.519342 -13.765801,32.978712 0,19.45946 14.098996,38.26668 16.062979,40.91061 1.964066,2.64394 27.741976,42.56746 67.198056,59.70023 9.39925,4.07167 16.72928,6.50408 22.42853,8.33718 9.41684,3.01413 17.99194,2.57349 24.77841,1.56881 7.55801,-1.12808 23.27028,-9.55348 26.54953,-18.78962 3.27917,-9.23623 3.27917,-17.15036 2.29718,-18.8073 -0.98199,-1.65684 -3.62996,-2.66152 -7.54049,-4.6357"
   inkscape:connector-curvature="0"
   style="clip-rule:evenodd;fill:#ffffff;fill-opacity:1;fill-rule:evenodd;stroke-width:17.58108711" />
</g>

	</g>

</g>
      <g
         id="g879"
         style="fill:#d9d9d9;fill-opacity:1">
</g>
      <g
         id="g881"
         style="fill:#d9d9d9;fill-opacity:1">
</g>
      <g
         id="g883"
         style="fill:#d9d9d9;fill-opacity:1">
</g>
      <g
         id="g885"
         style="fill:#d9d9d9;fill-opacity:1">
</g>
      <g
         id="g887"
         style="fill:#d9d9d9;fill-opacity:1">
</g>
      <g
         id="g889"
         style="fill:#d9d9d9;fill-opacity:1">
</g>
      <g
         id="g891"
         style="fill:#d9d9d9;fill-opacity:1">
</g>
      <g
         id="g893"
         style="fill:#d9d9d9;fill-opacity:1">
</g>
      <g
         id="g895"
         style="fill:#d9d9d9;fill-opacity:1">
</g>
      <g
         id="g897"
         style="fill:#d9d9d9;fill-opacity:1">
</g>
      <g
         id="g899"
         style="fill:#d9d9d9;fill-opacity:1">
</g>
      <g
         id="g901"
         style="fill:#d9d9d9;fill-opacity:1">
</g>
      <g
         id="g903"
         style="fill:#d9d9d9;fill-opacity:1">
</g>
      <g
         id="g905"
         style="fill:#d9d9d9;fill-opacity:1">
</g>
      <g
         id="g907"
         style="fill:#d9d9d9;fill-opacity:1">
</g>
    </g>
  </g>
  <style
     id="style1062"
     type="text/css">
	.st0{fill:none;stroke:#000000;stroke-width:2;stroke-linecap:round;stroke-linejoin:round;stroke-miterlimit:10;}
	.st1{fill:none;stroke:#000000;stroke-width:2;}
	.st2{fill:none;stroke:#000000;stroke-width:2;stroke-miterlimit:10;}
</style>
</svg>
