<?xml version="1.0" encoding="UTF-8" standalone="no"?>
<!-- Created with Inkscape (http://www.inkscape.org/) -->

<svg
   xmlns:dc="http://purl.org/dc/elements/1.1/"
   xmlns:cc="http://creativecommons.org/ns#"
   xmlns:rdf="http://www.w3.org/1999/02/22-rdf-syntax-ns#"
   xmlns:svg="http://www.w3.org/2000/svg"
   xmlns="http://www.w3.org/2000/svg"
   xmlns:sodipodi="http://sodipodi.sourceforge.net/DTD/sodipodi-0.dtd"
   xmlns:inkscape="http://www.inkscape.org/namespaces/inkscape"
   width="40mm"
   height="40mm"
   viewBox="0 0 40 40"
   version="1.1"
   id="svg8"
   inkscape:version="0.92.4 (5da689c313, 2019-01-14)"
   sodipodi:docname="fac.svg">
  <defs
     id="defs2" />
  <sodipodi:namedview
     id="base"
     pagecolor="#515151"
     bordercolor="#666666"
     borderopacity="1.0"
     inkscape:pageopacity="0"
     inkscape:pageshadow="2"
     inkscape:zoom="1.979899"
     inkscape:cx="37.935145"
     inkscape:cy="108.86688"
     inkscape:document-units="mm"
     inkscape:current-layer="g873"
     showgrid="false"
     fit-margin-top="0"
     fit-margin-left="0"
     fit-margin-right="0"
     fit-margin-bottom="0"
     inkscape:window-width="1366"
     inkscape:window-height="721"
     inkscape:window-x="-4"
     inkscape:window-y="-4"
     inkscape:window-maximized="1" />
  <metadata
     id="metadata5">
    <rdf:RDF>
      <cc:Work
         rdf:about="">
        <dc:format>image/svg+xml</dc:format>
        <dc:type
           rdf:resource="http://purl.org/dc/dcmitype/StillImage" />
        <dc:title></dc:title>
      </cc:Work>
    </rdf:RDF>
  </metadata>
  <g
     inkscape:label="Layer 1"
     inkscape:groupmode="layer"
     id="layer1"
     transform="translate(-35.201282,-174.39331)">
    <g
       id="g936"
       transform="matrix(0.12403755,0,0,0.12340233,35.098331,174.39331)"
       style="fill:#d9d9d9;fill-opacity:1">
      <g
         id="g877"
         style="fill:#d9d9d9;fill-opacity:1">
	<g
   id="g875"
   style="fill:#d9d9d9;fill-opacity:1">
		<g
   id="g873"
   style="fill:#d9d9d9;fill-opacity:1">
			<path
   id="path869"
   d="M 162.071,0 C 73.162,0 0.83,72.332 0.83,161.241 c 0,37.076 12.788,73.004 36.1,101.677 -6.65,16.756 -17.788,31.245 -32.401,42.089 -2.237,1.66 -3.37,4.424 -2.94,7.177 0.429,2.754 2.349,5.042 4.985,5.942 11.683,3.992 23.856,6.017 36.182,6.017 19.572,0 38.698,-5.093 55.569,-14.763 20.158,8.696 41.584,13.104 63.747,13.104 88.909,0 161.241,-72.333 161.241,-161.242 C 323.313,72.333 250.98,0 162.071,0 Z m 0,307.483 c -21.32,0 -41.881,-4.492 -61.11,-13.351 -2.292,-1.057 -4.959,-0.89 -7.102,0.443 -15.313,9.529 -32.985,14.566 -51.104,14.566 -6.053,0 -12.065,-0.564 -17.981,-1.684 12.521,-12.12 22.014,-26.95 27.788,-43.547 0.878,-2.525 0.346,-5.328 -1.398,-7.354 C 28.378,230.07 15.83,196.22 15.83,161.241 15.83,80.604 81.434,15 162.071,15 c 80.637,0 146.241,65.604 146.241,146.241 10e-4,80.639 -65.603,146.242 -146.241,146.242 z"
   inkscape:connector-curvature="0"
   style="fill:#d9d9d9;fill-opacity:1" />

			<path
   id="path871"
   d="m 205.201,113.646 h -21.2 v -6.94 c 0,-0.568 0.057,-0.932 0.106,-1.142 0.099,-0.017 0.227,-0.029 0.378,-0.029 h 20.258 c 4.143,0 7.5,-3.357 7.5,-7.5 V 67.093 c 0,-4.13 -3.339,-7.483 -7.47,-7.5 L 176.847,59.48 c -33.585,0 -45.502,24.429 -45.502,45.349 v 8.818 h -10.406 c -4.143,0 -7.5,3.357 -7.5,7.5 v 36.115 c 0,4.143 3.357,7.5 7.5,7.5 h 10.556 v 82.782 c 0,4.143 3.357,7.5 7.5,7.5 h 36.112 c 4.143,0 7.5,-3.357 7.5,-7.5 v -82.782 h 19.304 c 3.879,0 7.117,-2.957 7.469,-6.819 l 3.29,-36.115 c 0.191,-2.099 -0.509,-4.182 -1.93,-5.737 -1.421,-1.558 -3.431,-2.445 -5.539,-2.445 z m -10.138,36.116 h -19.956 c -4.143,0 -7.5,3.357 -7.5,7.5 v 82.782 h -21.112 v -82.782 c 0,-4.143 -3.357,-7.5 -7.5,-7.5 h -10.556 v -21.115 h 10.406 c 4.143,0 7.5,-3.357 7.5,-7.5 v -16.318 c 0,-9.125 2.972,-30.349 30.472,-30.349 l 20.426,0.083 v 15.973 h -12.758 c -7.458,0 -15.484,5.061 -15.484,16.171 v 14.44 c 0,4.143 3.357,7.5 7.5,7.5 h 20.486 z"
   inkscape:connector-curvature="0"
   style="fill:#e4e4e4;fill-opacity:1" />

		</g>

	</g>

</g>
      <g
         id="g879"
         style="fill:#d9d9d9;fill-opacity:1">
</g>
      <g
         id="g881"
         style="fill:#d9d9d9;fill-opacity:1">
</g>
      <g
         id="g883"
         style="fill:#d9d9d9;fill-opacity:1">
</g>
      <g
         id="g885"
         style="fill:#d9d9d9;fill-opacity:1">
</g>
      <g
         id="g887"
         style="fill:#d9d9d9;fill-opacity:1">
</g>
      <g
         id="g889"
         style="fill:#d9d9d9;fill-opacity:1">
</g>
      <g
         id="g891"
         style="fill:#d9d9d9;fill-opacity:1">
</g>
      <g
         id="g893"
         style="fill:#d9d9d9;fill-opacity:1">
</g>
      <g
         id="g895"
         style="fill:#d9d9d9;fill-opacity:1">
</g>
      <g
         id="g897"
         style="fill:#d9d9d9;fill-opacity:1">
</g>
      <g
         id="g899"
         style="fill:#d9d9d9;fill-opacity:1">
</g>
      <g
         id="g901"
         style="fill:#d9d9d9;fill-opacity:1">
</g>
      <g
         id="g903"
         style="fill:#d9d9d9;fill-opacity:1">
</g>
      <g
         id="g905"
         style="fill:#d9d9d9;fill-opacity:1">
</g>
      <g
         id="g907"
         style="fill:#d9d9d9;fill-opacity:1">
</g>
    </g>
  </g>
</svg>
