<?xml version="1.0" encoding="UTF-8" standalone="no"?>
<!-- Created with Inkscape (http://www.inkscape.org/) -->

<svg
   xmlns:dc="http://purl.org/dc/elements/1.1/"
   xmlns:cc="http://creativecommons.org/ns#"
   xmlns:rdf="http://www.w3.org/1999/02/22-rdf-syntax-ns#"
   xmlns:svg="http://www.w3.org/2000/svg"
   xmlns="http://www.w3.org/2000/svg"
   xmlns:sodipodi="http://sodipodi.sourceforge.net/DTD/sodipodi-0.dtd"
   xmlns:inkscape="http://www.inkscape.org/namespaces/inkscape"
   width="92.210213mm"
   height="119.29446mm"
   viewBox="0 0 92.210215 119.29446"
   version="1.1"
   id="svg8"
   inkscape:version="0.92.4 (5da689c313, 2019-01-14)"
   sodipodi:docname="help.svg">
  <defs
     id="defs2" />
  <sodipodi:namedview
     id="base"
     pagecolor="#ffffff"
     bordercolor="#666666"
     borderopacity="1.0"
     inkscape:pageopacity="0.0"
     inkscape:pageshadow="2"
     inkscape:zoom="0.35"
     inkscape:cx="274.25551"
     inkscape:cy="250.99247"
     inkscape:document-units="mm"
     inkscape:current-layer="layer1"
     showgrid="false"
     fit-margin-top="0"
     fit-margin-left="0"
     fit-margin-right="0"
     fit-margin-bottom="0"
     inkscape:window-width="1366"
     inkscape:window-height="721"
     inkscape:window-x="-4"
     inkscape:window-y="-4"
     inkscape:window-maximized="1" />
  <metadata
     id="metadata5">
    <rdf:RDF>
      <cc:Work
         rdf:about="">
        <dc:format>image/svg+xml</dc:format>
        <dc:type
           rdf:resource="http://purl.org/dc/dcmitype/StillImage" />
        <dc:title></dc:title>
      </cc:Work>
    </rdf:RDF>
  </metadata>
  <g
     inkscape:label="Layer 1"
     inkscape:groupmode="layer"
     id="layer1"
     transform="translate(158.26041,-27.588189)">
    <g
       id="g996"
       transform="matrix(0.23734258,0,0,0.23734258,-171.80247,27.588189)"
       style="fill:#787878;fill-opacity:1">
      <g
         id="g923"
         style="fill:#787878;fill-opacity:1">
	<g
   id="g891"
   style="fill:#787878;fill-opacity:1">
		<g
   id="g889"
   style="fill:#787878;fill-opacity:1">
			<path
   id="path887"
   d="M 422.251,180.181 C 417.936,79.877 343.215,0 251.345,0 159.454,0 84.711,79.877 80.418,180.159 66.979,183.74 57.057,195.841 57.057,210.358 v 78.065 c 0,17.321 14.021,31.364 31.385,31.364 17.364,0 31.407,-14.021 31.407,-31.364 h 0.022 v -6.04 c 14.841,69.091 50.799,158.567 131.474,158.567 80.632,0 116.612,-89.411 131.474,-158.502 v 5.975 c 0,13.827 9.017,25.41 21.398,29.595 -0.884,15.811 -9.448,99.355 -91.093,134.235 -5.112,-3.171 -11.325,-4.228 -17.494,-2.028 l -35.915,13.331 c -10.44,3.861 -15.768,15.488 -11.929,25.863 3.904,10.462 15.466,15.79 25.928,11.972 l 35.915,-13.309 c 7.83,-2.891 12.791,-10.138 13.158,-17.947 91.46,-40.445 100.843,-136.974 101.749,-152.268 12.166,-4.249 21.032,-15.747 21.032,-29.444 v -78.065 c 0.022,-14.495 -9.922,-26.618 -23.317,-30.177 z M 251.345,59.557 c -71.421,0 -130.266,56.71 -139.434,130.137 -2.438,-2.761 -5.328,-5.026 -8.564,-6.795 2.977,-87.513 68.013,-157.445 147.997,-157.445 79.963,0 144.999,69.932 147.976,157.445 -3.214,1.769 -6.105,4.034 -8.542,6.752 C 381.611,116.245 322.766,59.557 251.345,59.557 Z"
   inkscape:connector-curvature="0"
   style="fill:#787878;fill-opacity:1" />

		</g>

	</g>

	<g
   id="g893"
   style="fill:#787878;fill-opacity:1">
	</g>

	<g
   id="g895"
   style="fill:#787878;fill-opacity:1">
	</g>

	<g
   id="g897"
   style="fill:#787878;fill-opacity:1">
	</g>

	<g
   id="g899"
   style="fill:#787878;fill-opacity:1">
	</g>

	<g
   id="g901"
   style="fill:#787878;fill-opacity:1">
	</g>

	<g
   id="g903"
   style="fill:#787878;fill-opacity:1">
	</g>

	<g
   id="g905"
   style="fill:#787878;fill-opacity:1">
	</g>

	<g
   id="g907"
   style="fill:#787878;fill-opacity:1">
	</g>

	<g
   id="g909"
   style="fill:#787878;fill-opacity:1">
	</g>

	<g
   id="g911"
   style="fill:#787878;fill-opacity:1">
	</g>

	<g
   id="g913"
   style="fill:#787878;fill-opacity:1">
	</g>

	<g
   id="g915"
   style="fill:#787878;fill-opacity:1">
	</g>

	<g
   id="g917"
   style="fill:#787878;fill-opacity:1">
	</g>

	<g
   id="g919"
   style="fill:#787878;fill-opacity:1">
	</g>

	<g
   id="g921"
   style="fill:#787878;fill-opacity:1">
	</g>

</g>
      <g
         id="g925"
         style="fill:#787878;fill-opacity:1">
</g>
      <g
         id="g927"
         style="fill:#787878;fill-opacity:1">
</g>
      <g
         id="g929"
         style="fill:#787878;fill-opacity:1">
</g>
      <g
         id="g931"
         style="fill:#787878;fill-opacity:1">
</g>
      <g
         id="g933"
         style="fill:#787878;fill-opacity:1">
</g>
      <g
         id="g935"
         style="fill:#787878;fill-opacity:1">
</g>
      <g
         id="g937"
         style="fill:#787878;fill-opacity:1">
</g>
      <g
         id="g939"
         style="fill:#787878;fill-opacity:1">
</g>
      <g
         id="g941"
         style="fill:#787878;fill-opacity:1">
</g>
      <g
         id="g943"
         style="fill:#787878;fill-opacity:1">
</g>
      <g
         id="g945"
         style="fill:#787878;fill-opacity:1">
</g>
      <g
         id="g947"
         style="fill:#787878;fill-opacity:1">
</g>
      <g
         id="g949"
         style="fill:#787878;fill-opacity:1">
</g>
      <g
         id="g951"
         style="fill:#787878;fill-opacity:1">
</g>
      <g
         id="g953"
         style="fill:#787878;fill-opacity:1">
</g>
    </g>
  </g>
</svg>
