<?xml version="1.0" encoding="UTF-8" standalone="no"?>
<!-- Created with Inkscape (http://www.inkscape.org/) -->

<svg
   xmlns:dc="http://purl.org/dc/elements/1.1/"
   xmlns:cc="http://creativecommons.org/ns#"
   xmlns:rdf="http://www.w3.org/1999/02/22-rdf-syntax-ns#"
   xmlns:svg="http://www.w3.org/2000/svg"
   xmlns="http://www.w3.org/2000/svg"
   xmlns:sodipodi="http://sodipodi.sourceforge.net/DTD/sodipodi-0.dtd"
   xmlns:inkscape="http://www.inkscape.org/namespaces/inkscape"
   width="131.07402mm"
   height="122.05345mm"
   viewBox="0 0 131.07402 122.05345"
   version="1.1"
   id="svg8"
   inkscape:version="0.92.4 (5da689c313, 2019-01-14)"
   sodipodi:docname="home.svg">
  <defs
     id="defs2" />
  <sodipodi:namedview
     id="base"
     pagecolor="#ffffff"
     bordercolor="#666666"
     borderopacity="1.0"
     inkscape:pageopacity="0.0"
     inkscape:pageshadow="2"
     inkscape:zoom="0.35"
     inkscape:cx="507.69892"
     inkscape:cy="-0.77637862"
     inkscape:document-units="mm"
     inkscape:current-layer="layer1"
     showgrid="false"
     fit-margin-top="0"
     fit-margin-left="0"
     fit-margin-right="0"
     fit-margin-bottom="0"
     inkscape:window-width="1366"
     inkscape:window-height="721"
     inkscape:window-x="-4"
     inkscape:window-y="-4"
     inkscape:window-maximized="1" />
  <metadata
     id="metadata5">
    <rdf:RDF>
      <cc:Work
         rdf:about="">
        <dc:format>image/svg+xml</dc:format>
        <dc:type
           rdf:resource="http://purl.org/dc/dcmitype/StillImage" />
        <dc:title></dc:title>
      </cc:Work>
    </rdf:RDF>
  </metadata>
  <g
     inkscape:label="Layer 1"
     inkscape:groupmode="layer"
     id="layer1"
     transform="translate(158.51915,-26.574464)">
    <g
       id="g882"
       transform="matrix(0.26458333,0,0,0.26458333,-158.51928,22.064216)"
       style="fill:#787878;fill-opacity:1">
      <g
         id="g823"
         style="fill:#787878;fill-opacity:1">
	<g
   id="g821"
   style="fill:#787878;fill-opacity:1">
		<g
   id="g819"
   style="fill:#787878;fill-opacity:1">
			<path
   id="path815"
   d="m 487.083,225.514 -75.08,-75.08 v -86.73 c 0,-15.682 -12.708,-28.391 -28.413,-28.391 -15.669,0 -28.377,12.709 -28.377,28.391 V 93.645 L 299.31,37.74 C 271.671,10.116 223.616,10.165 196.04,37.79 L 8.312,225.514 c -11.082,11.104 -11.082,29.071 0,40.158 11.087,11.101 29.089,11.101 40.172,0 L 236.194,77.943 c 6.115,-6.083 16.893,-6.083 22.976,-0.018 l 187.742,187.747 c 5.567,5.551 12.825,8.312 20.081,8.312 7.271,0 14.541,-2.764 20.091,-8.312 11.086,-11.086 11.086,-29.053 -10e-4,-40.158 z"
   inkscape:connector-curvature="0"
   style="fill:#787878;fill-opacity:1" />

			<path
   id="path817"
   d="m 257.561,131.836 c -5.454,-5.451 -14.285,-5.451 -19.723,0 L 72.712,296.913 c -2.607,2.606 -4.085,6.164 -4.085,9.877 v 120.401 c 0,28.253 22.908,51.16 51.16,51.16 h 81.754 v -126.61 h 92.299 v 126.61 h 81.755 c 28.251,0 51.159,-22.907 51.159,-51.159 V 306.79 c 0,-3.713 -1.465,-7.271 -4.085,-9.877 z"
   inkscape:connector-curvature="0"
   style="fill:#787878;fill-opacity:1" />

		</g>

	</g>

</g>
      <g
         id="g825"
         style="fill:#787878;fill-opacity:1">
</g>
      <g
         id="g827"
         style="fill:#787878;fill-opacity:1">
</g>
      <g
         id="g829"
         style="fill:#787878;fill-opacity:1">
</g>
      <g
         id="g831"
         style="fill:#787878;fill-opacity:1">
</g>
      <g
         id="g833"
         style="fill:#787878;fill-opacity:1">
</g>
      <g
         id="g835"
         style="fill:#787878;fill-opacity:1">
</g>
      <g
         id="g837"
         style="fill:#787878;fill-opacity:1">
</g>
      <g
         id="g839"
         style="fill:#787878;fill-opacity:1">
</g>
      <g
         id="g841"
         style="fill:#787878;fill-opacity:1">
</g>
      <g
         id="g843"
         style="fill:#787878;fill-opacity:1">
</g>
      <g
         id="g845"
         style="fill:#787878;fill-opacity:1">
</g>
      <g
         id="g847"
         style="fill:#787878;fill-opacity:1">
</g>
      <g
         id="g849"
         style="fill:#787878;fill-opacity:1">
</g>
      <g
         id="g851"
         style="fill:#787878;fill-opacity:1">
</g>
      <g
         id="g853"
         style="fill:#787878;fill-opacity:1">
</g>
    </g>
  </g>
</svg>
