<?xml version="1.0" encoding="UTF-8" standalone="no"?>
<!-- Created with Inkscape (http://www.inkscape.org/) -->

<svg
   xmlns:dc="http://purl.org/dc/elements/1.1/"
   xmlns:cc="http://creativecommons.org/ns#"
   xmlns:rdf="http://www.w3.org/1999/02/22-rdf-syntax-ns#"
   xmlns:svg="http://www.w3.org/2000/svg"
   xmlns="http://www.w3.org/2000/svg"
   xmlns:sodipodi="http://sodipodi.sourceforge.net/DTD/sodipodi-0.dtd"
   xmlns:inkscape="http://www.inkscape.org/namespaces/inkscape"
   width="40mm"
   height="40mm"
   viewBox="0 0 40 40"
   version="1.1"
   id="svg8"
   inkscape:version="0.92.4 (5da689c313, 2019-01-14)"
   sodipodi:docname="music.svg">
  <defs
     id="defs2" />
  <sodipodi:namedview
     id="base"
     pagecolor="#ffffff"
     bordercolor="#666666"
     borderopacity="1.0"
     inkscape:pageopacity="0.0"
     inkscape:pageshadow="2"
     inkscape:zoom="0.35"
     inkscape:cx="41.304839"
     inkscape:cy="201.30484"
     inkscape:document-units="mm"
     inkscape:current-layer="layer1"
     showgrid="false"
     fit-margin-top="0"
     fit-margin-left="0"
     fit-margin-right="0"
     fit-margin-bottom="0"
     inkscape:window-width="1366"
     inkscape:window-height="721"
     inkscape:window-x="-4"
     inkscape:window-y="-4"
     inkscape:window-maximized="1" />
  <metadata
     id="metadata5">
    <rdf:RDF>
      <cc:Work
         rdf:about="">
        <dc:format>image/svg+xml</dc:format>
        <dc:type
           rdf:resource="http://purl.org/dc/dcmitype/StillImage" />
        <dc:title></dc:title>
      </cc:Work>
    </rdf:RDF>
  </metadata>
  <g
     inkscape:label="Layer 1"
     inkscape:groupmode="layer"
     id="layer1"
     transform="translate(35.119048,-162.09524)">
    <g
       transform="translate(-37.300631,47.483248)"
       id="layer1-5"
       inkscape:label="Layer 1"
       style="fill:#ffffff;fill-opacity:1">
      <path
         id="path839"
         d="m 42.056965,124.86175 c 0,-1.24997 -0.124619,-2.49994 -0.373808,-3.62494 -0.498446,-2.12497 -1.74455,-3.87497 -3.613708,-5.12493 -0.996886,-0.62499 -1.993767,-1.00001 -3.115262,-1.24997 -0.872277,-0.1252 -1.744549,-0.24992 -2.616822,-0.24992 -0.124618,0 -0.124618,0 -0.249236,0 H 12.150443 c -0.249237,0 -0.498446,0 -0.747664,0 -1.246108,0.12519 -2.4922121,0.24992 -3.6137071,0.62498 -2.24299,1.00001 -3.862926,2.49999 -4.859812,4.74996 -0.249236,0.74999 -0.49844,1.49998 -0.49844,2.37498 -0.124619,0.62498 -0.249237,1.24997 -0.249237,1.87495 0,0 0,0.1252 0,0.1252 v 20.37476 c 0,0.24992 0,0.49998 0,0.74999 0.124618,1.37497 0.249237,2.74995 0.872272,3.99997 1.121495,2.37493 2.866044,3.87491 5.358257,4.6249 0.747663,0.24992 1.370713,0.24992 2.1183761,0.37511 0.996886,0.1252 1.869158,0.1252 2.866044,0.1252 h 18.317751 c 0.872272,0 1.744549,0 2.616821,-0.1252 1.370718,-0.12519 2.616822,-0.62498 3.862926,-1.37497 1.370717,-0.875 2.492212,-2.12497 3.115267,-3.62495 0.249236,-0.74999 0.49844,-1.49998 0.623049,-2.24997 0.249237,-1.12501 0.249237,-2.24998 0.249237,-3.37499 -0.124618,-6.37489 -0.124618,-12.74984 -0.124618,-18.99978 z m -10.716509,6.62496 v 9.49987 c 0,0.74999 -0.124618,1.37498 -0.373808,1.99996 -0.498441,1 -1.246104,1.62499 -2.24299,1.875 -0.623054,0.1252 -1.121495,0.24992 -1.744549,0.24992 -1.619936,0.12519 -2.990653,-0.99996 -3.239871,-2.49994 -0.249237,-1.25002 0.373855,-2.75 1.744544,-3.37498 0.498445,-0.24992 1.121495,-0.37512 1.744549,-0.49998 0.623055,-0.1252 1.246104,-0.24992 1.869159,-0.37511 0.49844,-0.12473 0.747663,-0.37512 0.872272,-0.87495 0,-0.1252 0,-0.24992 0,-0.37512 0,-2.99996 0,-5.99992 0,-9.12489 0,-0.1252 0,-0.24992 0,-0.24992 -0.124619,-0.24992 -0.249237,-0.37512 -0.498441,-0.37512 -0.249237,0 -0.49844,0 -0.747663,0.1252 -1.246104,0.24992 -2.492213,0.49998 -3.738316,0.74999 l -6.105916,1.24997 c 0,0 0,0 -0.124618,0 -0.498441,0.1252 -0.62305,0.37511 -0.62305,0.875 0,0.12519 0,0.12519 0,0.24992 0,4.37493 0,8.62487 0,12.99981 0,0.74999 -0.124618,1.37502 -0.373808,2 -0.498445,1.12496 -1.246108,1.74995 -2.367603,1.99996 -0.62305,0.1252 -1.121495,0.24992 -1.744545,0.24992 -1.61994,0 -2.866044,-1 -3.239876,-2.62499 -0.249237,-1.37498 0.373808,-2.74995 1.869158,-3.49994 0.623055,-0.24992 1.246104,-0.37512 1.869159,-0.49998 0.49844,-0.1252 0.996886,-0.24992 1.370717,-0.24992 0.62305,-0.12519 0.996882,-0.49998 0.996882,-1.24997 v -0.12519 c 0,-4.87497 0,-9.87489 0,-14.74985 0,-0.24992 0,-0.37512 0.124618,-0.62499 0.124618,-0.49998 0.498441,-0.74999 0.872272,-0.875 0.373808,-0.12472 0.872272,-0.24991 1.246104,-0.24991 1.246109,-0.24992 2.492213,-0.50003 3.613708,-0.75 l 3.738316,-0.74999 c 0.996886,-0.24991 2.118381,-0.50002 3.239876,-0.74999 0.373808,-0.12519 0.747663,-0.12519 1.121495,-0.12519 0.49844,0 0.872272,0.24992 0.872272,0.74999 0,0.12519 0,0.24992 0,0.37511 0,3.24998 0,6.37495 0,9.62492 z"
         inkscape:connector-curvature="0"
         style="fill:#ffffff;fill-opacity:1;stroke-width:1.24804354" />
    </g>
  </g>
</svg>
